<svg width="214" height="200" viewBox="0 0 214 200" fill="none" xmlns="http://www.w3.org/2000/svg">
<path d="M159.989 65.5999C157.477 55.8662 152.431 47.1515 145.595 40.2011L105.393 0L65.0171 40.3762C47.782 58.0519 44.4138 84.2747 55.1199 105.293C64.439 123.588 83.4516 136.119 105.392 136.119C127.332 136.119 146.345 123.587 155.665 105.291C157.091 102.491 165.368 86.4397 159.989 65.5995L159.989 65.5999ZM116.397 22.0076L121.899 27.5096L86.1646 63.244C85.7473 63.6612 85.3568 64.1056 85.0032 64.5782C79.3426 72.1421 79.9576 80.2211 79.9636 80.4493C80.3195 94.1636 91.5498 105.172 105.351 105.172C119.152 105.172 130.427 94.1188 130.739 80.3645C130.752 79.7741 131.268 69.8904 123.714 62.3368L110.895 49.518L110.938 49.4743L116.398 44.016C116.398 44.016 129.384 56.8476 130.408 58.0267C141.325 70.5954 138.237 84.7601 137.651 87.2769C134.238 101.936 121.091 112.857 105.392 112.857C89.6936 112.857 76.5472 101.937 73.1338 87.2791C68.9841 69.4596 80.7247 57.6305 80.948 57.3831C80.9575 57.3729 116.397 22.008 116.397 22.0072V22.0076ZM117.038 66.663C118.112 67.6211 122.947 72.0905 122.915 79.8505C122.875 89.5364 114.758 97.4885 105.074 97.3386C95.5007 97.1903 87.7858 89.3843 87.7858 79.7763C87.7858 75.5645 89.2677 71.6996 91.7396 68.6737C92.4887 67.7559 105.394 55.0192 105.394 55.0192L117.038 66.663H117.038ZM152.735 91.2714C152.727 91.306 149.922 99.5236 149.914 99.5398C142.326 116.576 125.246 128.451 105.392 128.451C85.5379 128.451 68.4595 116.576 60.8712 99.5413C60.8656 99.5274 60.8588 99.5142 60.8531 99.5003C56.3947 88.6785 56.7137 81.674 56.7095 81.5828C56.7095 81.5828 55.089 63.3325 68.6346 47.7619C69.3441 46.9462 70.0804 46.155 70.8426 45.3886L105.394 11.0036L110.896 16.5056L74.9847 52.4166C69.8394 58.1389 66.2881 65.3212 65.0258 73.2654C65.0182 73.3099 65.0111 73.3551 65.0043 73.3995C61.1766 99.2321 81.1024 120.611 105.392 120.611C123.133 120.611 138.234 109.31 143.888 93.5132C146.072 87.4124 146.768 79.7447 145.78 73.3972C144.533 65.3856 140.959 58.1434 135.771 52.3846L121.899 38.5128L127.401 33.0108C127.401 33.0108 140.576 45.955 142.137 47.7465C154.285 61.692 155.8 78.6567 152.735 91.2706L152.735 91.2714Z" fill="black"/>
<path d="M0 145.677H12.8173C22.4712 145.677 33.1069 152.113 33.1069 164.985C33.1069 177.856 22.4712 184.292 12.8173 184.292H0V145.677ZM3.92709 180.693H11.5629C23.3438 180.693 28.8525 172.948 28.8525 164.985C28.8525 157.022 23.3438 149.277 11.5629 149.277H3.92709V180.693Z" fill="black"/>
<path d="M40.6878 166.73C40.6878 164.439 40.5786 162.475 40.4697 158.767H44.015V163.512H44.1242C45.1605 160.785 47.8328 158.112 52.3056 158.112C53.342 158.112 54.2145 158.222 54.9783 158.44L54.2692 161.985C53.8327 161.821 53.1782 161.712 52.1964 161.712C46.7422 161.712 44.288 166.457 44.288 169.894V184.293H40.6881V166.73L40.6878 166.73Z" fill="black"/>
<path d="M60.5952 172.512C61.0317 177.639 64.9042 181.675 69.9765 181.675C73.7944 181.675 76.7397 179.548 78.1579 177.257L80.9394 179.548C77.9395 183.366 74.1762 184.948 69.9765 184.948C62.3953 184.948 56.7773 179.221 56.7773 171.53C56.7773 163.84 62.3953 158.113 69.6492 158.113C77.3942 158.168 81.8666 163.895 81.8666 170.876V172.512H60.5952V172.512ZM77.9395 169.567C77.9395 164.712 74.8307 161.385 69.6492 161.385C64.9588 161.385 60.7044 165.367 60.7044 169.567H77.9399H77.9395Z" fill="black"/>
<path d="M100.302 184.292H96.2659L85.9028 158.767H90.2118L98.3386 180.256H98.4478L106.575 158.767H110.665L100.302 184.292H100.302Z" fill="black"/>
<path d="M134.826 185.275C123.318 185.275 114.7 176.712 114.7 164.985C114.7 153.258 123.318 144.695 134.826 144.695C146.335 144.695 154.952 153.258 154.952 164.985C154.952 176.712 146.335 185.275 134.826 185.275ZM134.826 148.295C124.9 148.295 118.955 156.095 118.955 164.985C118.955 173.875 124.9 181.675 134.826 181.675C144.753 181.675 150.698 173.875 150.698 164.985C150.698 156.095 144.753 148.295 134.826 148.295Z" fill="black"/>
<path d="M162.152 158.767H165.752V163.021H165.861C168.206 159.585 172.406 158.112 175.787 158.112C183.75 158.112 189.368 163.839 189.368 171.53C189.368 179.22 183.75 184.947 175.787 184.947C172.406 184.947 168.206 183.474 165.861 180.038H165.752V200H162.152V158.766V158.767ZM175.787 161.385C169.897 161.385 165.588 165.803 165.588 171.53C165.588 177.256 169.897 181.674 175.787 181.674C181.678 181.674 185.441 177.257 185.441 171.53C185.441 165.802 181.732 161.385 175.787 161.385Z" fill="black"/>
<path d="M209.657 164.821C208.566 162.748 206.767 161.385 204.149 161.385C201.53 161.385 198.858 162.476 198.858 165.203C198.858 167.603 200.549 168.475 203.875 169.239L207.53 170.111C211.075 170.929 213.748 173.493 213.748 177.092C213.748 182.656 208.784 184.947 203.821 184.947C199.949 184.947 196.404 183.583 194.004 179.983L197.113 177.856C198.585 180.147 200.821 181.674 203.821 181.674C206.821 181.674 209.821 180.365 209.821 177.42C209.821 174.856 207.639 173.984 204.966 173.329L201.476 172.511C199.73 172.075 194.931 170.657 194.931 165.803C194.931 160.512 199.567 158.112 204.367 158.112C207.912 158.112 211.239 159.367 212.875 162.694L209.657 164.821Z" fill="black"/>
</svg>
