<svg width="214" height="200" viewBox="0 0 214 200" fill="none" xmlns="http://www.w3.org/2000/svg">
<path d="M159.989 65.5999C157.477 55.8662 152.431 47.1515 145.595 40.2011L105.394 0L65.0174 40.3762C47.7823 58.0519 44.4141 84.2747 55.1202 105.293C64.4393 123.588 83.4519 136.119 105.392 136.119C127.332 136.119 146.346 123.587 155.665 105.291C157.092 102.491 165.368 86.4397 159.989 65.5995L159.989 65.5999ZM116.397 22.0076L121.899 27.5096L86.1648 63.244C85.7476 63.6612 85.357 64.1056 85.0034 64.5782C79.3429 72.1421 79.9579 80.2211 79.9639 80.4493C80.3198 94.1636 91.5501 105.172 105.351 105.172C119.152 105.172 130.427 94.1188 130.739 80.3645C130.752 79.7741 131.268 69.8904 123.714 62.3368L110.896 49.518L110.938 49.4743L116.398 44.016C116.398 44.016 129.384 56.8476 130.409 58.0267C141.326 70.5954 138.238 84.7601 137.652 87.2769C134.238 101.936 121.091 112.857 105.392 112.857C89.6939 112.857 76.5474 101.937 73.134 87.2791C68.9844 69.4596 80.725 57.6305 80.9483 57.3831C80.9577 57.3729 116.397 22.008 116.397 22.0072V22.0076ZM117.038 66.663C118.113 67.6211 122.948 72.0905 122.916 79.8505C122.876 89.5364 114.759 97.4885 105.074 97.3386C95.5009 97.1903 87.7861 89.3843 87.7861 79.7763C87.7861 75.5645 89.2679 71.6996 91.7399 68.6737C92.4889 67.7559 105.394 55.0192 105.394 55.0192L117.038 66.663H117.038ZM152.735 91.2714C152.727 91.306 149.922 99.5236 149.915 99.5398C142.326 116.576 125.246 128.451 105.392 128.451C85.5382 128.451 68.4598 116.576 60.8715 99.5413C60.8658 99.5274 60.859 99.5142 60.8534 99.5003C56.3949 88.6785 56.7139 81.674 56.7098 81.5828C56.7098 81.5828 55.0893 63.3325 68.6349 47.7619C69.3444 46.9462 70.0806 46.155 70.8428 45.3886L105.394 11.0036L110.896 16.5056L74.985 52.4166C69.8396 58.1389 66.2883 65.3212 65.026 73.2654C65.0185 73.3099 65.0113 73.3551 65.0045 73.3995C61.1769 99.2321 81.1027 120.611 105.392 120.611C123.133 120.611 138.234 109.31 143.889 93.5132C146.073 87.4124 146.768 79.7447 145.78 73.3972C144.533 65.3856 140.96 58.1434 135.771 52.3846L121.899 38.5128L127.401 33.0108C127.401 33.0108 140.576 45.955 142.137 47.7465C154.286 61.692 155.8 78.6567 152.735 91.2706L152.735 91.2714Z" fill="white"/>
<path d="M0 145.677H12.8173C22.4712 145.677 33.1069 152.113 33.1069 164.985C33.1069 177.856 22.4712 184.292 12.8173 184.292H0V145.677ZM3.92709 180.693H11.5629C23.3438 180.693 28.8525 172.948 28.8525 164.985C28.8525 157.022 23.3438 149.277 11.5629 149.277H3.92709V180.693Z" fill="white"/>
<path d="M40.688 166.73C40.688 164.439 40.5788 162.475 40.47 158.767H44.0152V163.512H44.1244C45.1608 160.785 47.8331 158.112 52.3059 158.112C53.3422 158.112 54.2148 158.222 54.9785 158.44L54.2694 161.985C53.8329 161.821 53.1784 161.712 52.1966 161.712C46.7425 161.712 44.2882 166.457 44.2882 169.894V184.293H40.6884V166.73L40.688 166.73Z" fill="white"/>
<path d="M60.5953 172.511C61.0318 177.638 64.9043 181.675 69.9766 181.675C73.7945 181.675 76.7398 179.548 78.158 177.257L80.9395 179.548C77.9396 183.365 74.1764 184.947 69.9766 184.947C62.3955 184.947 56.7775 179.22 56.7775 171.53C56.7775 163.84 62.3954 158.113 69.6493 158.113C77.3943 158.167 81.8667 163.894 81.8667 170.875V172.512H60.5953V172.511ZM77.9396 169.566C77.9396 164.712 74.8309 161.385 69.6493 161.385C64.9589 161.385 60.7046 165.366 60.7046 169.566H77.94H77.9396Z" fill="white"/>
<path d="M100.302 184.292H96.2657L85.9027 158.767H90.2117L98.3385 180.256H98.4477L106.575 158.767H110.665L100.302 184.292H100.302Z" fill="white"/>
<path d="M134.826 185.274C123.318 185.274 114.7 176.711 114.7 164.984C114.7 153.258 123.318 144.695 134.826 144.695C146.335 144.695 154.952 153.258 154.952 164.984C154.952 176.711 146.335 185.274 134.826 185.274ZM134.826 148.295C124.9 148.295 118.955 156.094 118.955 164.984C118.955 173.875 124.9 181.674 134.826 181.674C144.753 181.674 150.698 173.875 150.698 164.984C150.698 156.094 144.753 148.295 134.826 148.295Z" fill="white"/>
<path d="M162.152 158.767H165.752V163.021H165.861C168.206 159.585 172.406 158.112 175.787 158.112C183.75 158.112 189.368 163.839 189.368 171.53C189.368 179.22 183.75 184.947 175.787 184.947C172.406 184.947 168.206 183.474 165.861 180.038H165.752V200H162.152V158.766V158.767ZM175.787 161.385C169.897 161.385 165.588 165.803 165.588 171.53C165.588 177.256 169.897 181.674 175.787 181.674C181.678 181.674 185.441 177.257 185.441 171.53C185.441 165.802 181.732 161.385 175.787 161.385Z" fill="white"/>
<path d="M209.657 164.821C208.566 162.748 206.767 161.385 204.149 161.385C201.53 161.385 198.858 162.476 198.858 165.203C198.858 167.603 200.549 168.475 203.875 169.239L207.53 170.111C211.075 170.929 213.748 173.493 213.748 177.092C213.748 182.656 208.784 184.947 203.821 184.947C199.949 184.947 196.404 183.583 194.004 179.983L197.113 177.856C198.585 180.147 200.821 181.674 203.821 181.674C206.821 181.674 209.821 180.365 209.821 177.42C209.821 174.856 207.639 173.984 204.966 173.329L201.476 172.511C199.73 172.075 194.931 170.657 194.931 165.803C194.931 160.512 199.567 158.112 204.367 158.112C207.912 158.112 211.239 159.367 212.875 162.694L209.657 164.821Z" fill="white"/>
</svg>
