<svg width="423" height="100" viewBox="0 0 423 100" fill="none" xmlns="http://www.w3.org/2000/svg">
<path d="M81.1049 47.9371C79.269 40.8242 75.5814 34.4559 70.5861 29.377L41.2092 0L11.704 29.5049C-0.890301 42.4214 -3.35164 61.5837 4.47158 76.9426C11.2815 90.3121 25.175 99.4692 41.2078 99.4692C57.2406 99.4692 71.1346 90.3112 77.9451 76.9412C78.9873 74.8952 85.0352 63.1658 81.1046 47.9369L81.1049 47.9371ZM49.2498 16.0821L53.2704 20.1026L27.1575 46.2155C26.8526 46.5205 26.5672 46.8452 26.3088 47.1905C22.1723 52.7178 22.6217 58.6216 22.6261 58.7883C22.8862 68.8101 31.0928 76.8545 41.1778 76.8545C51.2628 76.8545 59.5024 68.7773 59.73 58.7264C59.7399 58.2949 60.1169 51.0724 54.5968 45.5526L45.2295 36.1853L45.2608 36.1533L49.2503 32.1647C49.2503 32.1647 58.7401 41.5414 59.4886 42.403C67.4662 51.5876 65.2097 61.9385 64.7815 63.7776C62.2871 74.4898 52.6798 82.4704 41.2081 82.4704C29.7363 82.4704 20.1296 74.4903 17.6352 63.7792C14.6028 50.7576 23.1823 42.1135 23.3455 41.9327C23.3524 41.9253 49.2495 16.0823 49.2498 16.0818V16.0821ZM49.7179 48.714C50.5033 49.4141 54.0365 52.6801 54.0131 58.3508C53.9839 65.4288 48.0524 71.2398 40.9752 71.1302C33.9798 71.0218 28.3422 65.3176 28.3422 58.2965C28.3422 55.2188 29.4251 52.3945 31.2315 50.1833C31.7788 49.5126 41.2094 40.2053 41.2094 40.2053L49.7182 48.714H49.7179ZM75.8038 66.6966C75.7978 66.7219 73.7481 72.7269 73.7426 72.7387C68.1974 85.1877 55.716 93.8659 41.2078 93.8659C26.6996 93.8659 14.2195 85.1882 8.67434 72.7398C8.67022 72.7297 8.66526 72.72 8.66113 72.7098C5.40311 64.8019 5.6362 59.6833 5.63317 59.6167C5.63317 59.6167 4.44901 46.2802 14.3475 34.902C14.8659 34.306 15.4039 33.7278 15.9609 33.1678L41.2092 8.04089L45.2297 12.0615L18.9878 38.3034C15.2278 42.485 12.6327 47.7335 11.7103 53.5387C11.7048 53.5712 11.6996 53.6042 11.6946 53.6367C8.89753 72.5139 23.4583 88.1364 41.2081 88.1364C54.1719 88.1364 65.2069 79.8781 69.3392 68.3348C70.9351 63.8767 71.4431 58.2734 70.7212 53.635C69.8104 47.7806 67.1988 42.4883 63.4071 38.28L53.2704 28.1433L57.291 24.1227C57.291 24.1227 66.9186 33.5817 68.059 34.8907C76.9368 45.0815 78.0433 57.4784 75.8035 66.696L75.8038 66.6966Z" fill="white"/>
<path d="M112.589 21.1992H131.181C145.185 21.1992 160.613 30.5349 160.613 49.2065C160.613 67.8782 145.185 77.2139 131.181 77.2139H112.589V21.1992ZM118.285 71.9923H129.361C146.451 71.9923 154.442 60.7578 154.442 49.2065C154.442 37.6553 146.451 26.421 129.361 26.421H118.285V71.9923Z" fill="white"/>
<path d="M171.61 51.7382C171.61 48.4152 171.451 45.567 171.293 40.1872H176.436V47.0704H176.594C178.097 43.1145 181.974 39.2378 188.461 39.2378C189.964 39.2378 191.23 39.396 192.338 39.7125L191.31 44.8551C190.677 44.6178 189.727 44.4596 188.303 44.4596C180.391 44.4596 176.831 51.3428 176.831 56.3271V77.214H171.609V51.7385L171.61 51.7382Z" fill="white"/>
<path d="M200.487 60.1247C201.12 67.5619 206.737 73.4163 214.095 73.4163C219.633 73.4163 223.905 70.3309 225.962 67.0079L229.997 70.3309C225.646 75.8691 220.187 78.1634 214.095 78.1634C203.097 78.1634 194.948 69.8562 194.948 58.7006C194.948 47.5451 203.097 39.2378 213.62 39.2378C224.854 39.3168 231.342 47.6241 231.342 57.7512V60.1247H200.487H200.487ZM225.646 55.8524C225.646 48.811 221.137 43.9849 213.62 43.9849C206.817 43.9849 200.645 49.7604 200.645 55.8524H225.646H225.646Z" fill="white"/>
<path d="M258.083 77.2143H252.229L237.197 40.1875H243.447L255.235 71.3596H255.393L267.182 40.1875H273.116L258.083 77.2143Z" fill="white"/>
<path d="M308.164 78.6383C291.471 78.6383 278.97 66.2169 278.97 49.2068C278.97 32.1968 291.47 19.7754 308.164 19.7754C324.858 19.7754 337.358 32.1968 337.358 49.2068C337.358 66.2169 324.858 78.6383 308.164 78.6383ZM308.164 24.9969C293.765 24.9969 285.141 36.3107 285.141 49.2066C285.141 62.1024 293.765 73.4165 308.164 73.4165C322.563 73.4165 331.187 62.1027 331.187 49.2066C331.187 36.3104 322.563 24.9969 308.164 24.9969Z" fill="white"/>
<path d="M347.801 40.1874H353.023V46.3587H353.181C356.583 41.3743 362.675 39.2383 367.581 39.2383C379.132 39.2383 387.281 47.5456 387.281 58.7011C387.281 69.8566 379.132 78.1639 367.581 78.1639C362.675 78.1639 356.583 76.0279 353.181 71.0433H353.023V100H347.801V40.1874ZM367.581 43.9851C359.036 43.9851 352.786 50.3935 352.786 58.7008C352.786 67.0081 359.036 73.4166 367.581 73.4166C376.125 73.4166 381.585 67.0081 381.585 58.7008C381.585 50.3935 376.205 43.9851 367.581 43.9851Z" fill="white"/>
<path d="M416.711 48.9692C415.129 45.9627 412.518 43.9849 408.721 43.9849C404.923 43.9849 401.046 45.5673 401.046 49.5232C401.046 53.0044 403.499 54.2703 408.325 55.3779L413.626 56.6438C418.768 57.8305 422.645 61.5492 422.645 66.7707C422.645 74.8405 415.446 78.1634 408.246 78.1634C402.629 78.1634 397.486 76.1856 394.005 70.9638L398.514 67.8783C400.651 71.2013 403.895 73.4166 408.246 73.4166C412.597 73.4166 416.949 71.5178 416.949 67.2454C416.949 63.527 413.784 62.2611 409.907 61.3117L404.844 60.1247C402.312 59.4918 395.349 57.4347 395.349 50.3933C395.349 42.719 402.074 39.2378 409.037 39.2378C414.179 39.2378 419.005 41.0574 421.379 45.8837L416.711 48.9692H416.711Z" fill="white"/>
</svg>
